<?xml version="1.0" encoding="utf-8"?>
<!-- Generator: Adobe Illustrator 18.0.0, SVG Export Plug-In . SVG Version: 6.00 Build 0)  -->
<!DOCTYPE svg PUBLIC "-//W3C//DTD SVG 1.1//EN" "http://www.w3.org/Graphics/SVG/1.1/DTD/svg11.dtd">
<svg version="1.1" id="Layer_1" xmlns="http://www.w3.org/2000/svg" xmlns:xlink="http://www.w3.org/1999/xlink" x="0px" y="0px"
	 viewBox="0 0 116 116" enable-background="new 0 0 116 116" xml:space="preserve">
<g>
	<g>
		<path fill="#FFFFFF" d="M71.1,32.3H44.8L57.9,9.5L71.1,32.3z M51.7,28.3h12.5l-6.3-10.8L51.7,28.3z"/>
	</g>
	<g>
		<path fill="#FFFFFF" d="M57.9,81.6c-6.4,0-11.7-5.2-11.7-11.7s5.2-11.7,11.7-11.7c6.4,0,11.7,5.2,11.7,11.7S64.5,81.6,57.9,81.6z
			 M57.9,62.3c-4.3,0-7.7,3.5-7.7,7.7s3.5,7.7,7.7,7.7s7.7-3.5,7.7-7.7S62.2,62.3,57.9,62.3z"/>
	</g>
	<g>
		<circle fill="#FFFFFF" cx="57.9" cy="100.5" r="6"/>
	</g>
	<g>
		<rect x="55.9" y="30.3" fill="#FFFFFF" width="4" height="29.9"/>
	</g>
	<g>
		<rect x="55.9" y="79.6" fill="#FFFFFF" width="4" height="14.9"/>
	</g>
	<g>
		<path fill="#FFFFFF" d="M92.3,51.1L73.7,32.4l25.5-6.8L92.3,51.1z M81.4,34.4l8.8,8.8l3.2-12.1L81.4,34.4z"/>
	</g>
	<g>
		
			<rect x="71.9" y="35.8" transform="matrix(-0.7071 -0.7071 0.7071 -0.7071 90.1752 138.9069)" fill="#FFFFFF" width="4" height="29.9"/>
	</g>
	<g>
		<path fill="#FFFFFF" d="M23.8,51.3L17,25.9l25.5,6.8L23.8,51.3z M22.6,31.6l3.2,12.1l8.8-8.8L22.6,31.6z"/>
	</g>
	<g>
		
			<rect x="27.4" y="49.2" transform="matrix(-0.7071 -0.7071 0.7071 -0.7071 36.0755 117.392)" fill="#FFFFFF" width="29.9" height="4"/>
	</g>
</g>
</svg>
