<?xml version="1.0" encoding="utf-8"?>
<!-- Generator: Adobe Illustrator 18.0.0, SVG Export Plug-In . SVG Version: 6.00 Build 0)  -->
<!DOCTYPE svg PUBLIC "-//W3C//DTD SVG 1.1//EN" "http://www.w3.org/Graphics/SVG/1.1/DTD/svg11.dtd">
<svg version="1.1" id="Layer_1" xmlns="http://www.w3.org/2000/svg" xmlns:xlink="http://www.w3.org/1999/xlink" x="0px" y="0px"
	 viewBox="0 0 116 116" enable-background="new 0 0 116 116" xml:space="preserve">
<g>
	<g>
		<path fill="#FFFFFF" d="M41.6,41.5c-12.6,0-36.4-2.2-36.4-9.8S28.9,22,41.6,22s36.4,2,36.4,9.6S54.1,41.5,41.6,41.5z M41.6,25.5
			C20,25.5,8.8,30,8.8,31.7c0,1.9,11.2,6.1,32.8,6.1s32.8-4.4,32.8-6.1S63.2,25.5,41.6,25.5z"/>
	</g>
	<g>
		<path fill="#FFFFFF" d="M41.6,57.4c-12.6,0-36.4-2-36.4-9.6h3.5c0,1.9,11.2,6.1,32.8,6.1s32.8-4.4,32.8-6.1h3.5
			C77.9,55.4,54.1,57.4,41.6,57.4z"/>
	</g>
	<g>
		<path fill="#FFFFFF" d="M41.6,73.3c-12.6,0-36.4-2-36.4-9.6h3.5c0,1.9,11.2,6.1,32.8,6.1s32.8-4.4,32.8-6.1h3.5
			C77.9,71.3,54.1,73.3,41.6,73.3z"/>
	</g>
	<g>
		<path fill="#FFFFFF" d="M41.6,89.2c-12.6,0-36.4-2-36.4-9.6V31.8h3.5v47.8c0,1.9,11.2,6.1,32.8,6.1s32.8-4.4,32.8-6.1V31.8h3.5
			v47.8C77.9,87.2,54.1,89.2,41.6,89.2z"/>
	</g>
	<g>
		<path fill="#FFFFFF" d="M63.9,80.6c-0.5,0-0.9-0.2-1.2-0.5c-0.3-0.3-0.5-0.8-0.5-1.2V50.9c0-0.9,0.8-1.8,1.8-1.8h45.5
			c0.5,0,0.9,0.2,1.2,0.5c0.3,0.3,0.5,0.8,0.5,1.2v27.9c0,0.9-0.8,1.8-1.8,1.8H63.9z M65.6,52.9V77h42V52.9H65.6z"/>
	</g>
	<g>
		<path fill="#FFFFFF" d="M86.6,66.7c-0.3,0-0.6-0.1-0.9-0.2L63,52.6l1.9-3.1l21.8,13.3l21.9-13.4l1.9,3.1l-22.9,14
			C87.3,66.6,87,66.7,86.6,66.7z"/>
	</g>
</g>
</svg>
