<?xml version="1.0" encoding="utf-8"?>
<!-- Generator: Adobe Illustrator 18.0.0, SVG Export Plug-In . SVG Version: 6.00 Build 0)  -->
<!DOCTYPE svg PUBLIC "-//W3C//DTD SVG 1.1//EN" "http://www.w3.org/Graphics/SVG/1.1/DTD/svg11.dtd">
<svg version="1.1" id="Layer_1" xmlns="http://www.w3.org/2000/svg" xmlns:xlink="http://www.w3.org/1999/xlink" x="0px" y="0px"
	 viewBox="0 0 116 116" enable-background="new 0 0 116 116" xml:space="preserve">
<g>
	<g>
		<path fill="#FFFFFF" d="M70.2,68.7H46.3V44.8h24v23.9H70.2z M49.8,65.2h17V48.3h-17V65.2z"/>
	</g>
	<g>
		<path fill="#FFFFFF" d="M84.9,83.5H31.5V30h53.4V83.5z M35,80.1h46.5V33.5H35V80.1z"/>
	</g>
	<g>
		<rect x="83.5" y="36.3" fill="#FFFFFF" width="14.5" height="3.5"/>
	</g>
	<g>
		<rect x="83.5" y="48.8" fill="#FFFFFF" width="14.5" height="3.5"/>
	</g>
	<g>
		<rect x="83.5" y="61.3" fill="#FFFFFF" width="14.5" height="3.5"/>
	</g>
	<g>
		<rect x="83.5" y="73.8" fill="#FFFFFF" width="14.5" height="3.5"/>
	</g>
	<g>
		<rect x="18.7" y="36.3" fill="#FFFFFF" width="14.5" height="3.5"/>
	</g>
	<g>
		<rect x="18.7" y="48.8" fill="#FFFFFF" width="14.5" height="3.5"/>
	</g>
	<g>
		<rect x="18.7" y="61.3" fill="#FFFFFF" width="14.5" height="3.5"/>
	</g>
	<g>
		<rect x="18.7" y="73.8" fill="#FFFFFF" width="14.5" height="3.5"/>
	</g>
	<g>
		<rect x="37.7" y="17.7" fill="#FFFFFF" width="3.5" height="14.5"/>
	</g>
	<g>
		<rect x="50.3" y="17.7" fill="#FFFFFF" width="3.5" height="14.5"/>
	</g>
	<g>
		<rect x="62.8" y="17.7" fill="#FFFFFF" width="3.5" height="14.5"/>
	</g>
	<g>
		<rect x="75.3" y="17.7" fill="#FFFFFF" width="3.5" height="14.5"/>
	</g>
	<g>
		<rect x="37.7" y="81.8" fill="#FFFFFF" width="3.5" height="14.5"/>
	</g>
	<g>
		<rect x="50.3" y="81.8" fill="#FFFFFF" width="3.5" height="14.5"/>
	</g>
	<g>
		<rect x="62.8" y="81.8" fill="#FFFFFF" width="3.5" height="14.5"/>
	</g>
	<g>
		<rect x="75.3" y="81.8" fill="#FFFFFF" width="3.5" height="14.5"/>
	</g>
</g>
</svg>
