<?xml version="1.0" encoding="utf-8"?>
<!-- Generator: Adobe Illustrator 18.0.0, SVG Export Plug-In . SVG Version: 6.00 Build 0)  -->
<!DOCTYPE svg PUBLIC "-//W3C//DTD SVG 1.1//EN" "http://www.w3.org/Graphics/SVG/1.1/DTD/svg11.dtd">
<svg version="1.1" id="Layer_1" xmlns="http://www.w3.org/2000/svg" xmlns:xlink="http://www.w3.org/1999/xlink" x="0px" y="0px"
	 viewBox="0 0 116 116" enable-background="new 0 0 116 116" xml:space="preserve">
<g>
	<g>
		<path fill="#FFFFFF" d="M99.8,87.1H7.6c-0.9,0-1.6-0.8-1.6-1.6V29.2c0-0.9,0.8-1.6,1.6-1.6h92.3c0.9,0,1.6,0.8,1.6,1.6v56.3
			C101.6,86.4,100.7,87.1,99.8,87.1z M9.3,83.8h88.9V30.9H9.3V83.8z"/>
	</g>
	<g>
		<path fill="#FFFFFF" d="M53.7,58.9c-0.4,0-0.6-0.1-0.9-0.2l-46.1-28l1.8-2.9l45.3,27.7L99,27.8l1.8,2.9l-46.1,28
			C54.3,58.9,54.1,58.9,53.7,58.9z"/>
	</g>
	<g>
		<path fill="#FFFFFF" d="M110,56.7v-6.9c0-4-3-7.5-7.2-8.6c-1.1-0.2-2-0.5-3-0.5c-5.5,0-10.1,4-10.1,9v6.9h-2v18.8h2.9H112V56.7
			C112,56.7,110,56.7,110,56.7z M107.4,56.7h-6.3h-8.8v-6.1c0-4.5,3-7.4,7.6-7.4c1.1,0,2.1,0.2,3,0.5c2.9,1.1,4.6,3.4,4.6,6.8v6.2
			H107.4z"/>
	</g>
</g>
</svg>
