<?xml version="1.0" encoding="utf-8"?>
<!-- Generator: Adobe Illustrator 18.0.0, SVG Export Plug-In . SVG Version: 6.00 Build 0)  -->
<!DOCTYPE svg PUBLIC "-//W3C//DTD SVG 1.1//EN" "http://www.w3.org/Graphics/SVG/1.1/DTD/svg11.dtd">
<svg version="1.1" id="Layer_1" xmlns="http://www.w3.org/2000/svg" xmlns:xlink="http://www.w3.org/1999/xlink" x="0px" y="0px"
	 viewBox="0 0 116 116" enable-background="new 0 0 116 116" xml:space="preserve">
<g>
	<g>
		<path fill="#FFFFFF" d="M84.6,97.8c-3.8,0-7.4-1.3-10.3-3.5c-5.1-4-7.4-10.3-6.2-17l-32-24.8c-3,1.4-6.4,2-9.6,1.4
			c-8.8-1.3-15.3-9.5-15-19.1c0-0.7,0.4-1.3,1-1.7c0.6-0.4,1.3-0.4,2-0.1L29,38.9l4.5-2.4l-1.4-5l-14.9-6.4
			c-0.6-0.3-1.1-0.8-1.3-1.4c-0.1-0.7,0-1.4,0.4-1.8c4-4.5,9.9-6.9,15.7-6.1c9.2,1.4,15.7,10.3,15,20.2L80.3,62
			c2.4-1,4.8-1.6,7.4-1.6c3.8,0,7.4,1.3,10.3,3.5c4.5,3.5,7.1,9.3,6.5,15.4c0,0.7-0.4,1.3-1,1.7c-0.6,0.3-1.3,0.4-2,0.1l-15-6.5
			L82,77.3l1.4,5l14.4,6.2c0.7,0.3,1.1,0.8,1.3,1.6c0.1,0.7-0.1,1.4-0.6,1.8C94.8,95.7,89.7,97.8,84.6,97.8z M36.4,47.9
			c0.4,0,1,0.1,1.3,0.4l34,26.6c0.7,0.6,1,1.4,0.7,2.1c-1.3,5.5,0.4,10.9,4.5,14c2.3,1.7,5,2.5,7.8,2.5c3,0,5.8-1,8.4-2.7l-12.2-5.2
			c-0.6-0.3-1-0.7-1.1-1.3l-2.3-7.5c-0.3-1,0.1-2,1-2.5l6.9-3.8c0.6-0.3,1.3-0.3,1.8-0.1l12.9,5.5c-0.4-3.5-2.1-6.7-4.8-8.6
			c-2.3-1.7-5-2.5-7.8-2.5c-2.3,0-4.5,0.6-6.7,1.7c-0.7,0.4-1.6,0.3-2.3-0.3L43.5,38.7c-0.6-0.4-0.8-1.3-0.8-2
			c1.1-8.1-4-15.6-11.2-16.7c-3.4-0.6-6.8,0.4-9.6,2.5L34.7,28c0.6,0.3,1,0.7,1.3,1.4l2.1,7.6c0.3,1-0.1,2-1.1,2.4L30,43
			c-0.6,0.3-1.1,0.3-1.8,0.1l-12.3-5.1c1,6.1,5.4,10.8,11.2,11.6c2.8,0.4,5.7-0.1,8.2-1.6C35.7,48,36,47.9,36.4,47.9z"/>
	</g>
</g>
</svg>
