<?xml version="1.0" encoding="utf-8"?>
<!-- Generator: Adobe Illustrator 18.0.0, SVG Export Plug-In . SVG Version: 6.00 Build 0)  -->
<!DOCTYPE svg PUBLIC "-//W3C//DTD SVG 1.1//EN" "http://www.w3.org/Graphics/SVG/1.1/DTD/svg11.dtd">
<svg version="1.1" id="Layer_1" xmlns="http://www.w3.org/2000/svg" xmlns:xlink="http://www.w3.org/1999/xlink" x="0px" y="0px"
	 viewBox="0 0 116 116" enable-background="new 0 0 116 116" xml:space="preserve">
<g>
	<g>
		<circle fill="#FFFFFF" cx="57.8" cy="93.4" r="4.1"/>
	</g>
	<g>
		<path fill="#FFFFFF" d="M68.5,82.9c-2.8-2.8-6.6-4.4-10.6-4.4s-7.8,1.5-10.6,4.4l-2.5-2.5c3.5-3.5,8.1-5.4,13.1-5.4
			s9.6,1.9,13.1,5.4L68.5,82.9z"/>
	</g>
	<g>
		<path fill="#FFFFFF" d="M80.4,70.9c-6-6-14-9.3-22.6-9.3c-8.5,0-16.5,3.3-22.6,9.3l-2.5-2.5C39.3,61.7,48.2,58,57.7,58
			c9.4,0,18.4,3.7,25.1,10.4L80.4,70.9z"/>
	</g>
	<g>
		<path fill="#FFFFFF" d="M92.6,58.6c-9.3-9.3-21.7-14.4-34.8-14.4c-13.2,0-25.5,5.1-34.8,14.4l-2.6-2.5c10-10,23.2-15.5,37.3-15.5
			c14.2,0,27.4,5.5,37.3,15.5L92.6,58.6z"/>
	</g>
	<g>
		<path fill="#FFFFFF" d="M105,46.2C92.4,33.6,75.6,26.7,57.8,26.7c-17.9,0-34.7,7-47.3,19.6l-2.5-2.5C21.4,30.4,39,23.1,57.8,23.1
			c18.8,0,36.4,7.3,49.8,20.6L105,46.2z"/>
	</g>
</g>
</svg>
