<?xml version="1.0" encoding="utf-8"?>
<!-- Generator: Adobe Illustrator 18.0.0, SVG Export Plug-In . SVG Version: 6.00 Build 0)  -->
<!DOCTYPE svg PUBLIC "-//W3C//DTD SVG 1.1//EN" "http://www.w3.org/Graphics/SVG/1.1/DTD/svg11.dtd">
<svg version="1.1" id="Layer_1" xmlns="http://www.w3.org/2000/svg" xmlns:xlink="http://www.w3.org/1999/xlink" x="0px" y="0px"
	 viewBox="0 0 116 116" enable-background="new 0 0 116 116" xml:space="preserve">
<g>
	<g>
		<path fill="#FFFFFF" d="M34.9,45.7H12c-0.9,0-1.7-0.8-1.7-1.7V30.1c0-0.9,0.8-1.7,1.7-1.7h22.8c0.9,0,1.7,0.8,1.7,1.7V44
			C36.6,44.9,35.8,45.7,34.9,45.7z M13.7,42.3h19.5V31.8H13.7V42.3z"/>
	</g>
	<g>
		<path fill="#FFFFFF" d="M104,45.7H81.1c-0.9,0-1.7-0.8-1.7-1.7V30.1c0-0.9,0.8-1.7,1.7-1.7H104c0.9,0,1.7,0.8,1.7,1.7V44
			C105.7,44.9,104.9,45.7,104,45.7z M82.8,42.3h19.5V31.8H82.8V42.3z"/>
	</g>
	<g>
		<path fill="#FFFFFF" d="M69.4,66.5H46.5c-0.9,0-1.7-0.8-1.7-1.7V50.9c0-0.9,0.8-1.7,1.7-1.7h22.8c0.9,0,1.7,0.8,1.7,1.7v13.9
			C71.1,65.9,70.4,66.5,69.4,66.5z M48.2,63.1h19.5V52.6H48.2V63.1z"/>
	</g>
	<g>
		<path fill="#FFFFFF" d="M34.9,87.5H12c-0.9,0-1.7-0.8-1.7-1.7V71.8c0-0.9,0.8-1.7,1.7-1.7h22.8c0.9,0,1.7,0.8,1.7,1.7v13.9
			C36.6,86.7,35.8,87.5,34.9,87.5z M13.7,84.1h19.5V73.5H13.7V84.1z"/>
	</g>
	<g>
		<path fill="#FFFFFF" d="M104,87.5H81.1c-0.9,0-1.7-0.8-1.7-1.7V71.8c0-0.9,0.8-1.7,1.7-1.7H104c0.9,0,1.7,0.8,1.7,1.7v13.9
			C105.7,86.7,104.9,87.5,104,87.5z M82.8,84.1h19.5V73.5H82.8V84.1z"/>
	</g>
	<g>
		
			<rect x="33.9" y="45.8" transform="matrix(-0.8603 -0.5097 0.5097 -0.8603 51.5409 109.1987)" fill="#FFFFFF" width="13.6" height="3.4"/>
	</g>
	<g>
		
			<rect x="39" y="61.6" transform="matrix(-0.5099 -0.8602 0.8602 -0.5099 2.7042 138.2832)" fill="#FFFFFF" width="3.4" height="13.6"/>
	</g>
	<g>
		
			<rect x="73.5" y="40.7" transform="matrix(-0.5096 -0.8604 0.8604 -0.5096 72.7032 136.4377)" fill="#FFFFFF" width="3.4" height="13.6"/>
	</g>
	<g>
		
			<rect x="68.5" y="66.6" transform="matrix(-0.8603 -0.5097 0.5097 -0.8603 105.1673 165.4808)" fill="#FFFFFF" width="13.6" height="3.4"/>
	</g>
</g>
</svg>
