<?xml version="1.0" encoding="utf-8"?>
<!-- Generator: Adobe Illustrator 18.0.0, SVG Export Plug-In . SVG Version: 6.00 Build 0)  -->
<!DOCTYPE svg PUBLIC "-//W3C//DTD SVG 1.1//EN" "http://www.w3.org/Graphics/SVG/1.1/DTD/svg11.dtd">
<svg version="1.1" id="Layer_1" xmlns="http://www.w3.org/2000/svg" xmlns:xlink="http://www.w3.org/1999/xlink" x="0px" y="0px"
	 viewBox="0 0 116 116" enable-background="new 0 0 116 116" xml:space="preserve">
<g>
	<g>
		<path fill="#FFFFFF" d="M42.7,50.5H5V29.6h37.7V50.5z M8.6,46.9h30.5V33.2H8.6V46.9z"/>
	</g>
	<g>
		<path fill="#FFFFFF" d="M76.8,50.5H39V29.6h37.7v20.9H76.8z M42.7,46.9h30.5V33.2H42.7V46.9z"/>
	</g>
	<g>
		<path fill="#FFFFFF" d="M110.9,50.5H73.2V29.6h37.7L110.9,50.5L110.9,50.5z M76.8,46.9h30.5V33.2H76.8V46.9z"/>
	</g>
	<g>
		<path fill="#FFFFFF" d="M59.7,67.5H22V46.9h37.7V67.5z M25.7,63.9h30.5V50.5H25.7V63.9z"/>
	</g>
	<g>
		<path fill="#FFFFFF" d="M93.9,67.5H56.1V46.9h37.7v20.7H93.9z M59.7,63.9h30.5V50.5H59.7V63.9z"/>
	</g>
	<g>
		<path fill="#FFFFFF" d="M42.8,84.7H5.1V63.9h37.7V84.7z M8.7,81h30.5V67.5H8.7V81z"/>
	</g>
	<g>
		<path fill="#FFFFFF" d="M77,84.7H39.2V63.9h37.7v20.8H77z M42.8,81h30.5V67.5H42.8V81z"/>
	</g>
	<g>
		<path fill="#FFFFFF" d="M111,84.7H73.3V63.9H111V84.7z M77,81h30.5V67.5H77V81z"/>
	</g>
	<g>
		<polygon fill="#FFFFFF" points="111,85 5.1,85 5,37.9 8.6,37.9 8.7,81.4 107.4,81.4 107.3,31.4 110.9,31.4 		"/>
	</g>
</g>
</svg>
