<?xml version="1.0" encoding="utf-8"?>
<!-- Generator: Adobe Illustrator 18.0.0, SVG Export Plug-In . SVG Version: 6.00 Build 0)  -->
<!DOCTYPE svg PUBLIC "-//W3C//DTD SVG 1.1//EN" "http://www.w3.org/Graphics/SVG/1.1/DTD/svg11.dtd">
<svg version="1.1" id="Layer_1" xmlns="http://www.w3.org/2000/svg" xmlns:xlink="http://www.w3.org/1999/xlink" x="0px" y="0px"
	 viewBox="0 0 116 116" enable-background="new 0 0 116 116" xml:space="preserve">
<g>
	<path fill="#FFFFFF" d="M100.4,61h-2.8V51c0-5.8-4.4-10.7-10.3-12.4c0,1.2,0,2.4-0.1,3.5c4.1,1.4,6.6,5,6.6,9.9v9h-9.2
		c-1.3,4.7-5.4,17.4-15.2,27.3h31V61z"/>
</g>
<g>
	<path fill="#FFFFFF" d="M87.2,42.1c-1.3-0.5-2.7-0.7-4.4-0.7c-6.6,0-11,4.1-11,10.6v9h12.7c-0.2,0.8-0.6,2-1.1,3.3
		c1.1-3.2,1.5-5.2,1.5-5.2s2.2-9.4,2.1-20.5C87.3,39.8,87.2,40.9,87.2,42.1z"/>
	<path fill="#FFFFFF" d="M69.5,88.2c3.7-3.7,6.5-7.8,8.7-11.7C76,80.5,73.2,84.5,69.5,88.2z"/>
	<path fill="#FFFFFF" d="M65.3,88.3V61h2.8V51c0-7.2,6.6-13,14.8-13c1.5,0,3.1,0.2,4.4,0.6c0-4.6-0.4-9.4-1.4-14
		C69,26.9,52.5,17,52.5,17S36,26.9,19.2,24.5c-3.7,15.9,0.7,34.6,0.7,34.6S26.3,90.3,52.5,99c7-2.4,12.5-6.3,16.9-10.7H65.3z"/>
	<path fill="#FFFFFF" d="M82.5,67.5c-0.2,0.5-0.4,0.9-0.6,1.5C82.2,68.4,82.3,68,82.5,67.5z"/>
	<path fill="#FFFFFF" d="M83.6,64.6c-0.1,0.4-0.2,0.8-0.5,1.2C83.3,65.3,83.4,64.9,83.6,64.6z"/>
	<path fill="#FFFFFF" d="M81.9,69c-0.9,2.2-2.1,4.8-3.7,7.4C79.8,73.9,81,71.4,81.9,69z"/>
	<path fill="#FFFFFF" d="M83.1,66c-0.1,0.4-0.4,0.8-0.5,1.3C82.7,66.8,83,66.4,83.1,66z"/>
</g>
</svg>
