<?xml version="1.0" encoding="utf-8"?>
<!-- Generator: Adobe Illustrator 18.0.0, SVG Export Plug-In . SVG Version: 6.00 Build 0)  -->
<!DOCTYPE svg PUBLIC "-//W3C//DTD SVG 1.1//EN" "http://www.w3.org/Graphics/SVG/1.1/DTD/svg11.dtd">
<svg version="1.1" id="Layer_1" xmlns="http://www.w3.org/2000/svg" xmlns:xlink="http://www.w3.org/1999/xlink" x="0px" y="0px"
	 viewBox="0 0 116 116" enable-background="new 0 0 116 116" xml:space="preserve">
<g>
	<g>
		<path fill="#FFFFFF" d="M45.7,41.8c-12.7,0-36.6-2.1-36.6-9.9s23.8-9.7,36.6-9.7c12.6,0,36.6,2,36.6,9.8S58.3,41.8,45.7,41.8z
			 M45.7,25.9c-21.7,0-33,4.4-33,6.2c0,1.9,11.2,6.2,33,6.2s33-4.4,33-6.2C78.7,30.2,67.4,25.9,45.7,25.9z"/>
	</g>
	<g>
		<path fill="#FFFFFF" d="M45.7,57.8c-12.7,0-36.6-2-36.6-9.8h3.6c0,1.9,11.2,6.2,33,6.2s33-4.4,33-6.2h3.6
			C82.3,55.8,58.3,57.8,45.7,57.8z"/>
	</g>
	<g>
		<path fill="#FFFFFF" d="M88.3,56.3c-0.7-0.2-1.2-0.3-1.9-0.3c-2.9,0-4.8,1.8-4.8,4.6v3.9h5.6h4v-3.9
			C91.2,58.5,90.1,56.9,88.3,56.3z"/>
		<g>
			<path fill="none" d="M78.7,64.7v10.6V64.7z"/>
			<path fill="#FFFFFF" d="M45.7,86.1c-21.7,0-33-4.3-33-6.2V32H9.2V80c0,7.8,23.8,9.8,36.6,9.8c11.7,0,33-1.8,36.1-8.2h-4.9
				C72.7,83.7,62.4,86.1,45.7,86.1z"/>
			<rect x="78.7" y="32" fill="#FFFFFF" width="3.6" height="17.1"/>
			<g>
				<path fill="#FFFFFF" d="M45.7,70.3c-21.7,0-33-4.4-33-6.2H9.2c0,7.8,23.8,9.8,36.6,9.8c4.9,0,11.6-0.3,17.8-1.2V69
					C58.8,69.7,52.8,70.3,45.7,70.3z"/>
				<path fill="#FFFFFF" d="M82.3,49.1h-3.6h-5.1v-4.9h-10v4.9V69v3.6v9h13.2h4.9h27.4V49.1H82.3z M94.1,76.7H82.3h-1.7h-1.9v-1.5
					v-6.6v-3.9l0,0H80v-0.6v-3.8c0-1.8,0.9-3.4,2.2-4.4c1-0.8,2.6-1.3,4.2-1.3c0.7,0,1.3,0.1,1.9,0.2c2.6,0.7,4.5,2.8,4.5,5.5v4.4
					h1.3v12H94.1z"/>
			</g>
		</g>
	</g>
</g>
</svg>
