<?xml version="1.0" encoding="utf-8"?>
<!-- Generator: Adobe Illustrator 18.0.0, SVG Export Plug-In . SVG Version: 6.00 Build 0)  -->
<!DOCTYPE svg PUBLIC "-//W3C//DTD SVG 1.1//EN" "http://www.w3.org/Graphics/SVG/1.1/DTD/svg11.dtd">
<svg version="1.1" id="Layer_1" xmlns="http://www.w3.org/2000/svg" xmlns:xlink="http://www.w3.org/1999/xlink" x="0px" y="0px"
	 viewBox="0 0 116 116" enable-background="new 0 0 116 116" xml:space="preserve">
<g>
	<g>
		<path fill="#FFFFFF" d="M43.5,41.2c-12.9,0-37.1-2.2-37.1-10s24.2-9.8,37.1-9.8c12.8,0,37.1,2.1,37.1,9.8S56.2,41.2,43.5,41.2z
			 M43.5,24.9c-22,0-33.5,4.5-33.5,6.3c0,1.9,11.5,6.3,33.5,6.3S77,33.1,77,31.2C77,29.4,65.5,24.9,43.5,24.9z"/>
	</g>
	<g>
		<path fill="#FFFFFF" d="M43.5,57.4c-12.9,0-37.1-2.1-37.1-9.8H10c0,1.9,11.5,6.3,33.5,6.3S77,49.4,77,47.5h3.6
			C80.6,55.4,56.2,57.4,43.5,57.4z"/>
	</g>
	<g>
		<path fill="#FFFFFF" d="M43.5,73.6c-12.9,0-37.1-2.1-37.1-9.8H10c0,1.9,11.5,6.3,33.5,6.3S77,65.7,77,63.8h3.6
			C80.6,71.6,56.2,73.6,43.5,73.6z"/>
	</g>
	<g>
		<path fill="#FFFFFF" d="M43.5,89.8c-12.9,0-37.1-2.1-37.1-9.8V31.2H10V80c0,1.9,11.5,6.3,33.5,6.3S77,81.8,77,80V31.2h3.6V80
			C80.6,87.8,56.2,89.8,43.5,89.8z"/>
	</g>
	<g>
		<path fill="#FFFFFF" d="M98.9,62.5c0-2.2-1.1-3.7-2.9-4.5c-0.6-0.2-1.2-0.4-1.9-0.4c-3,0-4.9,1.8-4.9,4.7v4h5.6h4.1
			C98.9,66.4,98.9,62.5,98.9,62.5z"/>
		<path fill="#FFFFFF" d="M105.4,59.8c0-0.5,0.1-0.8,0.1-1.3c0-5.3-4.3-9.6-9.6-9.6c-2.5,0-4.7,0.9-6.4,2.5
			c-1.5-5.3-6.6-9.1-12.3-9.1c-7.1,0-12.9,5.7-12.9,12.9c0,1.5,0.2,3,0.7,4.3c-0.1,0-0.1,0-0.2,0c-5.2,0-9.4,4.2-9.4,9.4
			s4.2,9.4,9.4,9.4h21.3V66.6h1.3v-4.5c0-3.3,2.9-5.7,6.6-5.7c0.7,0,1.3,0.1,1.9,0.2c2.7,0.7,4.6,2.9,4.6,5.5v4.5h1.3v11.6h2.3l0,0
			c4.7-0.5,8.3-4.5,8.3-9.3C112.5,64.5,109.5,60.9,105.4,59.8z"/>
	</g>
</g>
</svg>
